# xmcd
#
# Track frame offsets:
#	150
#	16372
#	32488
#	47893
#	65557
#	83929
#	100061
#	117156
#	132205
#	146713
#	161920
#	177561
#	191851
#	207980
#
# Disc length: 2994 seconds
#
# Revision: 0
# Processed by: cddbd v1.5.2PL0 Copyright (c) Steve Scherf et al.
# Submitted via: dBpowerAMP V4.0
#
DISCID=ce0bb00e
DTITLE=RONNY E RANGEL - A FELICIDADE NÃO ESPERA
DYEAR=1900
DGENRE=SERTANEJO
TTITLE0=ARREIA CERVEJA
TTITLE1=A FELICIDADE NÃO ESPERA
TTITLE2=FORA DO AR
TTITLE3=UM ANJO
TTITLE4=VOLTA PRA MIM
TTITLE5=LARGUEI
TTITLE6=POUT PORRI DE VIOLA
TTITLE7=GOIAS ME ESPERA
TTITLE8=SAPO NA LAGOA
TTITLE9=PAREI
TTITLE10=TELEFONA
TTITLE11=VIDA DO MEU CORAÇÃO
TTITLE12=ME DEIXA PRA LÁ
TTITLE13=PRA DIZER ADEUS
EXTD=
EXTT0=
EXTT1=
EXTT2=
EXTT3=
EXTT4=
EXTT5=
EXTT6=
EXTT7=
EXTT8=
EXTT9=
EXTT10=
EXTT11=
EXTT12=
EXTT13=
PLAYORDER=
